<svg width="24" height="24" viewBox="0 0 24 24" fill="none" xmlns="http://www.w3.org/2000/svg">
<mask id="path-1-inside-1_1_17" fill="white">
<path d="M17.79 22.75H6.21C3.47 22.75 1.25 20.52 1.25 17.78V10.37C1.25 9.01 2.09 7.3 3.17 6.46L8.56 2.26C10.18 0.999997 12.77 0.939997 14.45 2.12L20.63 6.45C21.82 7.28 22.75 9.06 22.75 10.51V17.79C22.75 20.52 20.53 22.75 17.79 22.75ZM9.48 3.44L4.09 7.64C3.38 8.2 2.75 9.47 2.75 10.37V17.78C2.75 19.69 4.3 21.25 6.21 21.25H17.79C19.7 21.25 21.25 19.7 21.25 17.79V10.51C21.25 9.55 20.56 8.22 19.77 7.68L13.59 3.35C12.45 2.55 10.57 2.59 9.48 3.44Z"/>
</mask>
<path d="M17.79 22.75H6.21C3.47 22.75 1.25 20.52 1.25 17.78V10.37C1.25 9.01 2.09 7.3 3.17 6.46L8.56 2.26C10.18 0.999997 12.77 0.939997 14.45 2.12L20.63 6.45C21.82 7.28 22.75 9.06 22.75 10.51V17.79C22.75 20.52 20.53 22.75 17.79 22.75ZM9.48 3.44L4.09 7.64C3.38 8.2 2.75 9.47 2.75 10.37V17.78C2.75 19.69 4.3 21.25 6.21 21.25H17.79C19.7 21.25 21.25 19.7 21.25 17.79V10.51C21.25 9.55 20.56 8.22 19.77 7.68L13.59 3.35C12.45 2.55 10.57 2.59 9.48 3.44Z" fill="#707B81"/>
<path d="M3.17 6.46L4.39788 8.0387L4.3993 8.0376L3.17 6.46ZM8.56 2.26L7.33212 0.681292L7.3307 0.682396L8.56 2.26ZM14.45 2.12L13.3005 3.75663L13.3024 3.75796L14.45 2.12ZM20.63 6.45L19.4824 8.08797L19.4859 8.0904L20.63 6.45ZM9.48 3.44L10.7093 5.0176L10.7099 5.01714L9.48 3.44ZM4.09 7.64L2.86068 6.06237L2.85143 6.06967L4.09 7.64ZM19.77 7.68L18.6224 9.31796L18.6318 9.3246L18.6414 9.33112L19.77 7.68ZM13.59 3.35L12.4411 4.98711L12.4424 4.98796L13.59 3.35ZM17.79 20.75H6.21V24.75H17.79V20.75ZM6.21 20.75C4.57981 20.75 3.25 19.4207 3.25 17.78H-0.75C-0.75 21.6193 2.36019 24.75 6.21 24.75V20.75ZM3.25 17.78V10.37H-0.75V17.78H3.25ZM3.25 10.37C3.25 10.0681 3.35387 9.60321 3.6002 9.10162C3.84621 8.60068 4.15277 8.22935 4.39788 8.0387L1.94212 4.88129C1.10723 5.53065 0.453788 6.43431 0.0098027 7.33837C-0.433866 8.24178 -0.75 9.31186 -0.75 10.37H3.25ZM4.3993 8.0376L9.7893 3.8376L7.3307 0.682396L1.9407 4.8824L4.3993 8.0376ZM9.78788 3.8387C10.7122 3.11982 12.3375 3.08025 13.3005 3.75663L15.5995 0.483366C13.2025 -1.20025 9.64784 -1.11983 7.33212 0.681293L9.78788 3.8387ZM13.3024 3.75796L19.4824 8.08796L21.7776 4.81203L15.5976 0.482031L13.3024 3.75796ZM19.4859 8.0904C19.7572 8.27968 20.0935 8.65636 20.3635 9.17336C20.6335 9.69047 20.75 10.1807 20.75 10.51H24.75C24.75 9.3893 24.4015 8.26453 23.909 7.32164C23.4165 6.37864 22.6928 5.45032 21.7741 4.80959L19.4859 8.0904ZM20.75 10.51V17.79H24.75V10.51H20.75ZM20.75 17.79C20.75 19.4181 19.4228 20.75 17.79 20.75V24.75C21.6372 24.75 24.75 21.6219 24.75 17.79H20.75ZM8.2507 1.8624L2.8607 6.0624L5.3193 9.2176L10.7093 5.0176L8.2507 1.8624ZM2.85143 6.06967C2.1898 6.59152 1.68946 7.32397 1.35955 7.99385C1.03086 8.66124 0.75 9.51282 0.75 10.37H4.75C4.75 10.3725 4.74993 10.3559 4.75556 10.319C4.7611 10.2827 4.77102 10.2342 4.78755 10.1742C4.82121 10.0522 4.87509 9.9091 4.94795 9.76114C5.11054 9.43102 5.2802 9.24848 5.32857 9.21033L2.85143 6.06967ZM0.75 10.37V17.78H4.75V10.37H0.75ZM0.75 17.78C0.75 20.787 3.18793 23.25 6.21 23.25V19.25C5.41207 19.25 4.75 18.5929 4.75 17.78H0.75ZM6.21 23.25H17.79V19.25H6.21V23.25ZM17.79 23.25C20.8046 23.25 23.25 20.8046 23.25 17.79H19.25C19.25 18.5954 18.5954 19.25 17.79 19.25V23.25ZM23.25 17.79V10.51H19.25V17.79H23.25ZM23.25 10.51C23.25 9.60855 22.9457 8.7146 22.5795 8.01251C22.2142 7.31226 21.6523 6.54402 20.8986 6.02887L18.6414 9.33112C18.6396 9.32989 18.6538 9.33954 18.6815 9.36594C18.7088 9.39194 18.7439 9.42907 18.7844 9.47872C18.8669 9.57994 18.9542 9.71149 19.033 9.86248C19.1117 10.0134 19.1705 10.162 19.2076 10.291C19.2462 10.4253 19.25 10.4991 19.25 10.51H23.25ZM20.9176 6.04203L14.7376 1.71203L12.4424 4.98796L18.6224 9.31796L20.9176 6.04203ZM14.7389 1.71288C13.7515 1.02002 12.5552 0.753228 11.4729 0.776718C10.3916 0.800185 9.2048 1.11837 8.25012 1.86285L10.7099 5.01714C10.8452 4.91162 11.1434 4.78481 11.5596 4.77578C11.9748 4.76677 12.2885 4.87997 12.4411 4.98711L14.7389 1.71288Z" fill="#707B81" mask="url(#path-1-inside-1_1_17)"/>
<path d="M12 18.25C11.8661 18.25 11.75 18.1339 11.75 18V15C11.75 14.8661 11.8661 14.75 12 14.75C12.1339 14.75 12.25 14.8661 12.25 15V18C12.25 18.1339 12.1339 18.25 12 18.25Z" fill="#707B81" stroke="#707B81"/>
</svg>
