<svg width="18" height="22" viewBox="0 0 18 22" fill="none" xmlns="http://www.w3.org/2000/svg">
<path d="M15.2395 7.97519L14.395 8.07104L14.395 8.07104L15.2395 7.97519ZM15.6867 11.9153L16.5313 11.8194L16.5313 11.8194L15.6867 11.9153ZM2.31328 11.9153L1.4687 11.8194L1.4687 11.8194L2.31328 11.9153ZM2.76046 7.97519L3.60504 8.07104L3.60504 8.07104L2.76046 7.97519ZM1.44779 13.8721L0.80053 13.3212L0.80053 13.3212L1.44779 13.8721ZM16.5522 13.8721L15.905 14.4231L15.905 14.4231L16.5522 13.8721ZM11.2699 3.37366H10.4199C10.4199 3.73699 10.6509 4.06014 10.9946 4.17783L11.2699 3.37366ZM6.73005 3.37366L7.00539 4.17783C7.34913 4.06014 7.58005 3.73699 7.58005 3.37366H6.73005ZM12.7959 19.2983C12.9607 18.8587 12.7379 18.3688 12.2983 18.2041C11.8587 18.0393 11.3688 18.2621 11.2041 18.7017L12.7959 19.2983ZM6.79594 18.7017C6.63119 18.2621 6.14129 18.0393 5.7017 18.2041C5.26212 18.3688 5.03932 18.8587 5.20406 19.2983L6.79594 18.7017ZM14.7772 16.15H3.22281V17.85H14.7772V16.15ZM14.395 8.07104L14.8421 12.0111L16.5313 11.8194L16.0841 7.87933L14.395 8.07104ZM3.15785 12.0111L3.60504 8.07104L1.91589 7.87933L1.4687 11.8194L3.15785 12.0111ZM2.09504 14.4231C2.68458 13.7305 3.05729 12.8972 3.15785 12.0111L1.4687 11.8194C1.40818 12.3526 1.18231 12.8727 0.80053 13.3212L2.09504 14.4231ZM14.8421 12.0111C14.9427 12.8972 15.3154 13.7305 15.905 14.4231L17.1995 13.3212C16.8177 12.8727 16.5918 12.3526 16.5313 11.8194L14.8421 12.0111ZM3.22281 16.15C2.60233 16.15 2.17293 15.8442 1.97753 15.4998C1.79052 15.1703 1.79219 14.7789 2.09504 14.4231L0.80053 13.3212C0.00635753 14.2541 -0.0186483 15.4267 0.499013 16.3389C1.00829 17.2363 2.01492 17.85 3.22281 17.85V16.15ZM14.7772 17.85C15.9851 17.85 16.9917 17.2363 17.501 16.3389C18.0186 15.4267 17.9936 14.2541 17.1995 13.3212L15.905 14.4231C16.2078 14.7789 16.2095 15.1703 16.0225 15.4998C15.8271 15.8442 15.3977 16.15 14.7772 16.15V17.85ZM12.1199 3.37366V3.26995H10.4199V3.37366H12.1199ZM16.0841 7.87933C15.7998 5.37421 13.943 3.39044 11.5453 2.56949L10.9946 4.17783C12.8817 4.82395 14.197 6.32706 14.395 8.07104L16.0841 7.87933ZM7.58005 3.37366V3.26995H5.88005V3.37366H7.58005ZM3.60504 8.07104C3.80298 6.32706 5.1183 4.82395 7.00539 4.17783L6.45472 2.56949C4.05701 3.39044 2.20021 5.37421 1.91589 7.87933L3.60504 8.07104ZM9 1.85C9.78422 1.85 10.4199 2.48573 10.4199 3.26995H12.1199C12.1199 1.54685 10.7231 0.15 9 0.15V1.85ZM9 0.15C7.2769 0.15 5.88005 1.54685 5.88005 3.26995H7.58005C7.58005 2.48573 8.21579 1.85 9 1.85V0.15ZM11.2041 18.7017C10.8965 19.5223 10.0445 20.15 9 20.15V21.85C10.7255 21.85 12.2301 20.8081 12.7959 19.2983L11.2041 18.7017ZM9 20.15C7.95548 20.15 7.10346 19.5223 6.79594 18.7017L5.20406 19.2983C5.76991 20.8081 7.27446 21.85 9 21.85V20.15Z" fill="#2B2B2B"/>
</svg>
