<svg width="24" height="24" viewBox="0 0 24 24" fill="none" xmlns="http://www.w3.org/2000/svg">
<mask id="path-1-inside-1_43_6474" fill="white">
<path d="M17.79 22.75H6.21C3.47 22.75 1.25 20.52 1.25 17.78V10.37C1.25 9.00997 2.09 7.29997 3.17 6.45997L8.56 2.25997C10.18 0.999974 12.77 0.939974 14.45 2.11997L20.63 6.44997C21.82 7.27997 22.75 9.05997 22.75 10.51V17.79C22.75 20.52 20.53 22.75 17.79 22.75ZM9.48 3.43997L4.09 7.63997C3.38 8.19997 2.75 9.46997 2.75 10.37V17.78C2.75 19.69 4.3 21.25 6.21 21.25H17.79C19.7 21.25 21.25 19.7 21.25 17.79V10.51C21.25 9.54997 20.56 8.21997 19.77 7.67997L13.59 3.34997C12.45 2.54997 10.57 2.58997 9.48 3.43997Z"/>
</mask>
<path d="M17.79 22.75H6.21C3.47 22.75 1.25 20.52 1.25 17.78V10.37C1.25 9.00997 2.09 7.29997 3.17 6.45997L8.56 2.25997C10.18 0.999974 12.77 0.939974 14.45 2.11997L20.63 6.44997C21.82 7.27997 22.75 9.05997 22.75 10.51V17.79C22.75 20.52 20.53 22.75 17.79 22.75ZM9.48 3.43997L4.09 7.63997C3.38 8.19997 2.75 9.46997 2.75 10.37V17.78C2.75 19.69 4.3 21.25 6.21 21.25H17.79C19.7 21.25 21.25 19.7 21.25 17.79V10.51C21.25 9.54997 20.56 8.21997 19.77 7.67997L13.59 3.34997C12.45 2.54997 10.57 2.58997 9.48 3.43997Z" fill="#0D6EFD"/>
<path d="M3.17 6.45997L4.39788 8.03868L4.3993 8.03757L3.17 6.45997ZM8.56 2.25997L7.33212 0.681269L7.3307 0.682373L8.56 2.25997ZM14.45 2.11997L13.3005 3.75661L13.3024 3.75794L14.45 2.11997ZM20.63 6.44997L19.4824 8.08794L19.4859 8.09038L20.63 6.44997ZM9.48 3.43997L10.7093 5.01757L10.7099 5.01712L9.48 3.43997ZM4.09 7.63997L2.86068 6.06235L2.85143 6.06964L4.09 7.63997ZM19.77 7.67997L18.6224 9.31794L18.6318 9.32458L18.6414 9.3311L19.77 7.67997ZM13.59 3.34997L12.4411 4.98709L12.4424 4.98794L13.59 3.34997ZM17.79 20.75H6.21V24.75H17.79V20.75ZM6.21 20.75C4.57981 20.75 3.25 19.4207 3.25 17.78H-0.75C-0.75 21.6193 2.36019 24.75 6.21 24.75V20.75ZM3.25 17.78V10.37H-0.75V17.78H3.25ZM3.25 10.37C3.25 10.0681 3.35387 9.60319 3.6002 9.1016C3.84621 8.60066 4.15277 8.22932 4.39788 8.03868L1.94212 4.88127C1.10723 5.53063 0.453788 6.43429 0.0098027 7.33835C-0.433866 8.24176 -0.75 9.31184 -0.75 10.37H3.25ZM4.3993 8.03757L9.7893 3.83757L7.3307 0.682373L1.9407 4.88237L4.3993 8.03757ZM9.78788 3.83868C10.7122 3.1198 12.3375 3.08022 13.3005 3.75661L15.5995 0.483343C13.2025 -1.20028 9.64784 -1.11985 7.33212 0.68127L9.78788 3.83868ZM13.3024 3.75794L19.4824 8.08794L21.7776 4.81201L15.5976 0.482008L13.3024 3.75794ZM19.4859 8.09038C19.7572 8.27965 20.0935 8.65634 20.3635 9.17333C20.6335 9.69044 20.75 10.1807 20.75 10.51H24.75C24.75 9.38928 24.4015 8.26451 23.909 7.32162C23.4165 6.37861 22.6928 5.45029 21.7741 4.80957L19.4859 8.09038ZM20.75 10.51V17.79H24.75V10.51H20.75ZM20.75 17.79C20.75 19.418 19.4228 20.75 17.79 20.75V24.75C21.6372 24.75 24.75 21.6219 24.75 17.79H20.75ZM8.2507 1.86237L2.8607 6.06237L5.3193 9.21757L10.7093 5.01757L8.2507 1.86237ZM2.85143 6.06964C2.1898 6.59149 1.68946 7.32395 1.35955 7.99383C1.03086 8.66122 0.75 9.5128 0.75 10.37H4.75C4.75 10.3724 4.74993 10.3559 4.75556 10.319C4.7611 10.2827 4.77102 10.2341 4.78755 10.1742C4.82121 10.0522 4.87509 9.90907 4.94795 9.76112C5.11054 9.431 5.2802 9.24846 5.32857 9.21031L2.85143 6.06964ZM0.75 10.37V17.78H4.75V10.37H0.75ZM0.75 17.78C0.75 20.787 3.18793 23.25 6.21 23.25V19.25C5.41207 19.25 4.75 18.5929 4.75 17.78H0.75ZM6.21 23.25H17.79V19.25H6.21V23.25ZM17.79 23.25C20.8046 23.25 23.25 20.8045 23.25 17.79H19.25C19.25 18.5954 18.5954 19.25 17.79 19.25V23.25ZM23.25 17.79V10.51H19.25V17.79H23.25ZM23.25 10.51C23.25 9.60852 22.9457 8.71458 22.5795 8.01249C22.2142 7.31223 21.6523 6.544 20.8986 6.02885L18.6414 9.3311C18.6396 9.32987 18.6538 9.33951 18.6815 9.36591C18.7088 9.39192 18.7439 9.42905 18.7844 9.47869C18.8669 9.57992 18.9542 9.71146 19.033 9.86246C19.1117 10.0134 19.1705 10.162 19.2076 10.291C19.2462 10.4253 19.25 10.499 19.25 10.51H23.25ZM20.9176 6.04201L14.7376 1.71201L12.4424 4.98794L18.6224 9.31794L20.9176 6.04201ZM14.7389 1.71286C13.7515 1.02 12.5552 0.753205 11.4729 0.776695C10.3916 0.800162 9.2048 1.11835 8.25012 1.86283L10.7099 5.01712C10.8452 4.9116 11.1434 4.78479 11.5596 4.77575C11.9748 4.76674 12.2885 4.87995 12.4411 4.98709L14.7389 1.71286Z" fill="#0D6EFD" mask="url(#path-1-inside-1_43_6474)"/>
<path d="M12 18.25C11.8661 18.25 11.75 18.1339 11.75 18V15C11.75 14.8661 11.8661 14.75 12 14.75C12.1339 14.75 12.25 14.8661 12.25 15V18C12.25 18.1339 12.1339 18.25 12 18.25Z" fill="#0D6EFD" stroke="#0D6EFD"/>
</svg>
